<svg width="16" height="27" viewBox="0 0 16 27" fill="none" xmlns="http://www.w3.org/2000/svg">
<path d="M4.86875 5.69002V5.75373H10.545V5.69002V5.75373H14.8034V4.04257H0.610413V5.75373H4.86875V5.69002Z" fill="white"/>
<path d="M4.86876 5.75308H0.610413V17.1315L4.86876 14.6601V5.75308Z" fill="#FADA29"/>
<path d="M14.8034 0.423615H0.610413V4.04194H14.8034V0.423615Z" fill="#FF4382"/>
<path d="M4.86804 17.8365L4.88616 17.8229L7.74016 19.5069L10.5262 17.8229L10.5443 17.8365V11.3645L4.86804 14.6597V17.8365Z" fill="#48D99E"/>
<path d="M4.86804 14.66L10.5443 11.3649V5.75308H4.86804V14.66Z" fill="#48D99E"/>
<path d="M4.86876 14.6604L0.610413 17.1318V20.2449L4.86876 17.8373V14.6604Z" fill="#FADA29"/>
<path d="M10.5466 5.75308V11.3649L14.8049 8.89349V5.75308H10.5466Z" fill="#785FF6"/>
<path d="M10.5466 17.8374L14.8049 20.2906V8.89398L10.5466 11.3654V17.8374Z" fill="#785FF6"/>
<path d="M10.545 17.8374L10.5269 17.8237L7.74087 19.5077L4.88687 17.8237L4.86875 17.8374L0.610413 20.245V20.3634V21.4921L3.65467 23.258H11.7591L14.8034 21.4921V20.3725V20.2905L10.545 17.8374Z" fill="white"/>
<path d="M14.8038 0.0180664H0.610885C0.503954 0.0180664 0.401402 0.0607428 0.325791 0.136707C0.250179 0.212672 0.207701 0.315701 0.207701 0.423131V21.4911C0.203414 21.5657 0.219766 21.64 0.254946 21.7059C0.290126 21.7718 0.342762 21.8266 0.407028 21.8643L7.50577 25.9604C7.5677 25.9965 7.63806 26.0153 7.70963 26.015C7.77969 26.0147 7.84845 25.9959 7.90896 25.9604L15.0077 21.8643C15.0685 21.8285 15.1189 21.7772 15.1539 21.7158C15.1889 21.6543 15.2072 21.5846 15.207 21.5138V0.423131C15.207 0.315701 15.1646 0.212672 15.0889 0.136707C15.0133 0.0607428 14.9108 0.0180664 14.8038 0.0180664ZM7.73681 19.0379L5.27241 17.6043V6.15776H10.1423V17.6088L7.73681 19.0379ZM1.01407 5.34763V4.43737H14.4052V5.34763H1.01407ZM1.01407 6.15776H4.46604V17.5769L1.01407 19.5522V6.15776ZM10.9487 6.15776H14.4052V19.5886L10.9487 17.5815V6.15776ZM14.4052 0.828196V3.6591H1.01407V0.828196H14.4052ZM11.6509 22.8564H3.76387L1.01407 21.2589V20.4989L4.82392 18.3188H4.86923L7.53295 19.8617H7.58279C7.60688 19.8748 7.63287 19.884 7.6598 19.889H7.81382C7.84039 19.8827 7.8662 19.8735 7.89084 19.8617H7.94067L10.541 18.3188H10.5817L14.4052 20.4989V21.2407L11.6509 22.8564Z" fill="black"/>
</svg>
